# xmcd
# 
# Track frame offsets:
#     150
#     35772
#     68137
#     101050
#     121855
#     136040
#     166990
#     186167
#     197612
#     215210
#     243635
#     265415
#     289507
#     315475
# 
# Disc length: 4711
# 
# Revision: 4
# Processed by: cddbd v1.5.2PL0 Copyright (c) Steve Scherf et al.
# Submitted via: fre:ac v1.0.31
# 
DISCID=d212650e
DTITLE=Ohio Players - Funk On Fire: The Mercury Anthology, Disc 1
DYEAR=1995
DGENRE=R&B
TTITLE0=Skin Tight
TTITLE1=Jive Turkey
TTITLE2=Heaven Must Be Like This
TTITLE3=Fire
TTITLE4=Together
TTITLE5=I Want To Be Free
TTITLE6=It's All Over
TTITLE7=Piano Ballad (Just Right)
TTITLE8=Fopp
TTITLE9=Sweet Sticky Thing
TTITLE10=Love Rollercoaster
TTITLE11=Honey
TTITLE12=There It Is
TTITLE13=Happy Holidays, Pts. 1 and 2
EXTD=
EXTT0=
EXTT1=
EXTT2=
EXTT3=
EXTT4=
EXTT5=
EXTT6=
EXTT7=
EXTT8=
EXTT9=
EXTT10=
EXTT11=
EXTT12=
EXTT13=
PLAYORDER=
